<svg width="22" height="28" xmlns="http://www.w3.org/2000/svg"><path d="M18.408 15.14a6.09 6.09 0 012.9-5.11 6.235 6.235 0 00-4.912-2.657c-2.067-.216-4.07 1.237-5.124 1.237-1.073 0-2.695-1.215-4.44-1.18a6.542 6.542 0 00-5.506 3.358c-2.38 4.121-.605 10.178 1.675 13.51 1.141 1.63 2.474 3.453 4.219 3.388 1.707-.07 2.345-1.089 4.405-1.089 2.042 0 2.64 1.089 4.42 1.048 1.832-.03 2.986-1.639 4.087-3.285A13.492 13.492 0 0022 20.554a5.886 5.886 0 01-3.593-5.415zm-3.362-9.957A5.997 5.997 0 0016.418.886 6.101 6.101 0 0012.47 2.93a5.706 5.706 0 00-1.408 4.137 5.045 5.045 0 003.984-1.883z" fill="#FFF"/></svg>