<svg width="175" height="84" xmlns="http://www.w3.org/2000/svg"><defs><radialGradient cx="-60.237%" cy="0%" fx="-60.237%" fy="0%" r="414.204%" gradientTransform="matrix(.46512 0 0 .60473 -.322 0)" id="a"><stop stop-color="#FF7D23" offset="0%"/><stop stop-color="#FF097F" offset="100%"/></radialGradient></defs><path d="M125.47 126.035c-10.053 7.137-16.209 2.212-26.737 2.84-12.966.774-7.976 5.239-20.325 3.838-4.264-.483-5.787-4.624-10.526-3.204-12.462 3.734-16.03 4.335-20.149 7.352-2.792 2.046-3.448 7.468-16.505 6.999-3.12-.112-3.998-8.534-7.112-8.782a268.744 268.744 0 01-14.73-1.6 7.396 7.396 0 01-3.67-1.61c-.51-.423-.966-1.385-.56-1.91 1.378-1.78 4.46-2.1 5.286-4.197 5.38-13.647-1.423-17.753 11.06-22.85l7.889-1.68c-.243-7.576-.243 8.399 5.91-12.92 1.262-4.368-5.769-13.406-1.238-13.585l3.39-3.933c4.68-.185 9.003 3.661 13.668 3.257 4.536-.394 7.994-4.846 12.495-5.527 3.742-.566 7.445 2.516 11.185 1.944 5.635-.862 13.154-6.982 20.114-6.558 8.858.54 15.644 5.993 24.512 7.249 8.556 1.211 17.467.34 25.783 2.693 4.375 1.238 6.92 6.294 11.218 7.779 4.215 1.457 19.415-2.718 20.46 6.693 2.175 19.56-28.141 19.39-37.643 24.854" transform="translate(-4 -62)" stroke="url(#a)" stroke-width="3" fill="none" stroke-dasharray="4,10" stroke-linecap="round"/></svg>