<svg width="15" height="23" xmlns="http://www.w3.org/2000/svg" xmlns:xlink="http://www.w3.org/1999/xlink"><defs><path d="M8.5 7.5h-.555c-.346-.595-.984-1-1.722-1H5.5V2a1.5 1.5 0 10-3 0v6.5a2 2 0 00-2 2v4.405c0 1.081.351 2.134 1 3l1.4 1.866a2 2 0 001.6.8h3.989a2 2 0 001.611-.813l1.425-1.935c.633-.86.975-1.899.975-2.966V11.5a2 2 0 00-2-2 2 2 0 00-2-2z" id="a"/></defs><g fill="none" fill-rule="evenodd"><g stroke="#111" transform="translate(1 1)"><use fill="#FFF" xlink:href="#a"/><path d="M4 0c-.552 0-1.052.224-1.414.586A1.993 1.993 0 002 2v6.05c-.49.1-.927.342-1.268.682A2.492 2.492 0 000 10.5v4.405c0 1.189.386 2.347 1.1 3.3l1.4 1.866a2.5 2.5 0 002 1h3.989a2.5 2.5 0 002.014-1.017l1.425-1.935A5.504 5.504 0 0013 14.857V11.5c0-.69-.28-1.315-.732-1.768a2.495 2.495 0 00-1.31-.69 2.496 2.496 0 00-.69-1.31C9.815 7.28 9.19 7 8.212 7 7.758 6.394 7.04 6 6 6V2C6 1.447 5.776.948 5.414.586A1.994 1.994 0 004 0z"/></g><path stroke="#000111" d="M3.5 9.5v5.071m3-7.071v2.071"/></g></svg>