<svg width="119" height="20" xmlns="http://www.w3.org/2000/svg"><defs><linearGradient x1="-60.237%" y1="0%" x2="132.416%" y2="0%" id="a"><stop stop-color="#FF7D23" offset="0%"/><stop stop-color="#FF097F" offset="100%"/></linearGradient></defs><g fill="none" fill-rule="evenodd"><path d="M102.07 12.684l2.252-6.756h.232l2.222 6.756h-4.707zm5.022-11.26h-5.23l-6.161 18.121h4.193l1.062-3.21h6.937l1.087 3.21h4.35l-6.238-18.122zm6.884 18.121h4.09V1.424h-4.09zM38.05 9.005V5.868h-3.573V2.175H30.67v2.516c0 .726-.392 1.217-1.113 1.217H28.26v3.097h2.202v5.799c0 3.006 1.785 4.737 4.762 4.737h2.77v-3.31h-1.757c-1.19 0-1.76-.62-1.76-1.63V9.005h3.572zm7.402 7.255c-1.889 0-3.287-1.45-3.287-3.546 0-2.07 1.398-3.547 3.287-3.547 1.917 0 3.314 1.476 3.314 3.547 0 2.07-1.397 3.543-3.314 3.543v.003zm.026-10.719c-4.426 0-7.377 3.137-7.377 7.17 0 4.033 2.977 7.17 7.351 7.17 4.402 0 7.378-3.137 7.378-7.17 0-4.033-2.976-7.17-7.352-7.17zm16.825.336v7.663c0 1.45-.932 2.614-2.33 2.614-1.372 0-2.2-.984-2.2-2.408V5.877h-4.01v9.112c0 2.848 1.863 4.892 4.892 4.892 1.838 0 3.137-.93 3.65-1.83h.206v1.5h3.805V5.878h-4.013zm12.038 10.381c-1.941 0-3.209-1.554-3.209-3.547 0-1.96 1.217-3.546 3.184-3.546 1.424 0 2.46.855 2.821 2.02h4.064c-.392-3.34-3.105-5.644-6.91-5.644-4.402 0-7.223 3.137-7.223 7.17 0 4.013 2.847 7.17 7.248 7.17 3.753 0 6.42-2.25 6.86-5.49h-4.091c-.336 1.09-1.397 1.867-2.744 1.867M90.029 5.541c-1.838 0-3.055.906-3.599 1.838h-.205V.131h-3.987v19.414h4.013v-7.712c0-1.424.983-2.564 2.38-2.564 1.373 0 2.253 1.01 2.253 2.408v7.87h4.013v-9.112c-.002-2.85-1.84-4.894-4.868-4.894" fill="#000"/><path d="M21.51 5.546a8.13 8.13 0 011.54.142c3.499.667 5.32 3.632 5.32 6.977l-.005 1.17H18.299c.105 1.42.977 2.511 2.327 2.858.314.08.637.12.96.119 1.58 0 2.638-.777 3.03-1.632h3.623c-.62 2.876-3.106 4.706-6.808 4.706a7.362 7.362 0 01-1.874-.236c-2.99-.78-5.063-3.42-5.063-6.855 0-4.272 2.847-7.249 7.016-7.249zM7.725.131c3.931 0 6.82 2.584 6.82 6.351a6.216 6.216 0 01-3.41 5.61l4.096 7.291H9.144a.966.966 0 01-.966-.966v-4.546a.156.156 0 00-.02-.078l-1.546-2.792a.055.055 0 00-.098 0l-1.548 2.804a.157.157 0 00-.02.076v4.536a.966.966 0 01-.966.96H0V.13zM21.51 8.6c-1.69 0-2.931 1.197-3.127 2.53v.033h6.26c-.135-1.26-1.045-2.262-2.446-2.503a3.756 3.756 0 00-.687-.06zM8.042 3.31l-.017.006-1.446 1.446-.002.002a.023.023 0 01-.033-.002L5.098 3.316a.025.025 0 00-.034 0L3.511 4.87a.025.025 0 000 .034l1.446 1.453c.01.011.01.026 0 .035L3.51 7.83a.026.026 0 000 .035L5.065 9.42c.011.009.025.008.033-.002l1.446-1.445c.01-.01.025-.01.035 0l1.44 1.445c.012.011.027.01.036 0l1.558-1.554c.01-.012.01-.027 0-.035L8.167 6.39c-.014-.017-.011-.033 0-.042l1.447-1.447a.024.024 0 000-.033L8.06 3.316a.026.026 0 00-.035 0z" fill="url(#a)"/></g></svg>