<svg width="342" height="318" xmlns="http://www.w3.org/2000/svg"><path d="M345.218 87.625c8.268-.03 16.52.724 24.643 2.26C425.86 100.568 455 147.99 455 201.496h0l-.084 18.714H293.842c1.673 22.707 15.626 40.166 37.235 45.707a60.338 60.338 0 0015.376 1.903c25.27 0 42.193-12.418 48.468-26.095h57.987c-9.936 46-49.703 75.273-108.945 75.273a117.841 117.841 0 01-29.997-3.785c-47.841-12.461-81.019-54.698-81.019-109.647 0-68.331 45.562-115.942 112.271-115.942zM124.63 1c62.902 0 109.133 41.337 109.133 101.597.38 37.854-20.78 72.639-54.577 89.721h0l65.56 116.631h-97.42c-8.536 0-15.458-6.919-15.458-15.452h0v-72.721a2.5 2.5 0 00-.314-1.234h0l-24.747-44.662a.878.878 0 00-1.569 0h0L80.47 219.73c-.205.37-.313.788-.313 1.213h0v72.554c-.057 8.494-6.962 15.348-15.46 15.348h0H1V1zm220.567 135.47c-27.027 0-46.9 19.152-50.037 40.48-.01.175-.01.349 0 .522h100.18v-.083c-2.155-20.073-16.714-36.11-39.14-39.958a60.13 60.13 0 00-11.003-.961zM129.985 51.955a.418.418 0 00-.565 0h0l-23.136 23.126c-.01.01-.02.023-.033.033a.375.375 0 01-.532-.033h0L82.583 51.955a.4.4 0 00-.544 0h0l-24.851 24.84a.4.4 0 000 .544h0l23.136 23.23a.375.375 0 010 .565h0l-23.136 23.02a.418.418 0 000 .565h0l24.851 24.84a.355.355 0 00.544 0h0l23.136-23.125a.418.418 0 01.565 0h0l23.053 23.125a.377.377 0 00.565 0h0l24.934-24.86a.375.375 0 000-.565h0l-23.136-23a.417.417 0 010-.67h0l23.136-23.125a.357.357 0 000-.544h0z" stroke="#FFF" stroke-width=".8" fill="none" stroke-opacity=".25"/></svg>