<svg width="160" height="24" viewBox="0 0 160 24" fill="none" xmlns="http://www.w3.org/2000/svg">
<path d="M2.20143 9.85425C2.03248 9.73123 1.96025 9.51452 2.02161 9.31473L2.10153 9.06496C2.15996 8.86756 2.33563 8.72781 2.5411 8.71527L8.92493 8.20573L11.3726 2.32101C11.4547 2.11485 11.6607 1.98554 11.8821 2.00129H12.1418C12.3505 1.99687 12.539 2.12523 12.6114 2.32101L15.069 8.20573L21.4528 8.71527C21.6583 8.72781 21.8339 8.86756 21.8924 9.06496L21.9723 9.31473C22.0403 9.50821 21.9805 9.72355 21.8224 9.85425L17.0071 13.9905L18.4857 20.195C18.5344 20.3936 18.4596 20.6021 18.2959 20.7245L18.0061 20.8843C17.8371 20.9986 17.6157 20.9986 17.4467 20.8843L12.0119 17.5873L6.54723 20.9143C6.37823 21.0286 6.15676 21.0286 5.98777 20.9143L5.76798 20.7645C5.60419 20.642 5.52945 20.4335 5.57816 20.2349L7.01677 13.9905L2.20143 9.85425Z" fill="url(#paint0_linear_100_402)"/>
<path d="M36.2014 9.85425C36.0325 9.73123 35.9602 9.51452 36.0216 9.31473L36.1015 9.06496C36.16 8.86756 36.3356 8.72781 36.5411 8.71527L42.9249 8.20573L45.3726 2.32101C45.4547 2.11485 45.6607 1.98554 45.8821 2.00129H46.1418C46.3505 1.99687 46.539 2.12523 46.6114 2.32101L49.069 8.20573L55.4528 8.71527C55.6583 8.72781 55.8339 8.86756 55.8924 9.06496L55.9723 9.31473C56.0403 9.50821 55.9805 9.72355 55.8224 9.85425L51.0071 13.9905L52.4857 20.195C52.5344 20.3936 52.4596 20.6021 52.2959 20.7245L52.0061 20.8843C51.8371 20.9986 51.6157 20.9986 51.4467 20.8843L46.0119 17.5873L40.5472 20.9143C40.3782 21.0286 40.1568 21.0286 39.9878 20.9143L39.768 20.7645C39.6042 20.642 39.5295 20.4335 39.5782 20.2349L41.0168 13.9905L36.2014 9.85425Z" fill="url(#paint1_linear_100_402)"/>
<path d="M70.2014 9.85425C70.0325 9.73123 69.9602 9.51452 70.0216 9.31473L70.1015 9.06496C70.16 8.86756 70.3356 8.72781 70.5411 8.71527L76.9249 8.20573L79.3726 2.32101C79.4547 2.11485 79.6607 1.98554 79.8821 2.00129H80.1418C80.3505 1.99687 80.539 2.12523 80.6114 2.32101L83.069 8.20573L89.4528 8.71527C89.6583 8.72781 89.8339 8.86756 89.8924 9.06496L89.9723 9.31473C90.0403 9.50821 89.9805 9.72355 89.8224 9.85425L85.0071 13.9905L86.4857 20.195C86.5344 20.3936 86.4596 20.6021 86.2959 20.7245L86.0061 20.8843C85.8371 20.9986 85.6157 20.9986 85.4467 20.8843L80.0119 17.5873L74.5472 20.9143C74.3782 21.0286 74.1568 21.0286 73.9878 20.9143L73.768 20.7645C73.6042 20.642 73.5295 20.4335 73.5782 20.2349L75.0168 13.9905L70.2014 9.85425Z" fill="url(#paint2_linear_100_402)"/>
<path d="M104.201 9.85425C104.032 9.73123 103.96 9.51452 104.022 9.31473L104.102 9.06496C104.16 8.86756 104.336 8.72781 104.541 8.71527L110.925 8.20573L113.373 2.32101C113.455 2.11485 113.661 1.98554 113.882 2.00129H114.142C114.35 1.99687 114.539 2.12523 114.611 2.32101L117.069 8.20573L123.453 8.71527C123.658 8.72781 123.834 8.86756 123.892 9.06496L123.972 9.31473C124.04 9.50821 123.98 9.72355 123.822 9.85425L119.007 13.9905L120.486 20.195C120.534 20.3936 120.46 20.6021 120.296 20.7245L120.006 20.8843C119.837 20.9986 119.616 20.9986 119.447 20.8843L114.012 17.5873L108.547 20.9143C108.378 21.0286 108.157 21.0286 107.988 20.9143L107.768 20.7645C107.604 20.642 107.529 20.4335 107.578 20.2349L109.017 13.9905L104.201 9.85425Z" fill="url(#paint3_linear_100_402)"/>
<defs>
<linearGradient id="paint0_linear_100_402" x1="2" y1="2" x2="20.975" y2="21.9737" gradientUnits="userSpaceOnUse">
<stop stop-color="#EF7F3E"/>
<stop offset="1" stop-color="#EC367D"/>
</linearGradient>
<linearGradient id="paint1_linear_100_402" x1="36" y1="2" x2="54.975" y2="21.9737" gradientUnits="userSpaceOnUse">
<stop stop-color="#EF7F3E"/>
<stop offset="1" stop-color="#EC367D"/>
</linearGradient>
<linearGradient id="paint2_linear_100_402" x1="70" y1="2" x2="88.975" y2="21.9737" gradientUnits="userSpaceOnUse">
<stop stop-color="#EF7F3E"/>
<stop offset="1" stop-color="#EC367D"/>
</linearGradient>
<linearGradient id="paint3_linear_100_402" x1="104" y1="2" x2="122.975" y2="21.9737" gradientUnits="userSpaceOnUse">
<stop stop-color="#EF7F3E"/>
<stop offset="1" stop-color="#EC367D"/>
</linearGradient>
<linearGradient id="paint4_linear_100_402" x1="138" y1="2" x2="156.975" y2="21.9737" gradientUnits="userSpaceOnUse">
<stop stop-color="#EF7F3E"/>
<stop offset="1" stop-color="#EC367D"/>
</linearGradient>
</defs>
</svg>
