<svg width="107" height="23" viewBox="0 0 107 23" fill="none" xmlns="http://www.w3.org/2000/svg">
<path d="M15.4707 17.9111H12.4427L10.7841 12.8235H5.01872L3.43872 17.9111H0.490723L6.20272 0.590698H9.73072L15.4707 17.9111ZM10.2841 10.6891L8.78405 6.16634C8.62539 5.7043 8.32805 4.61625 7.88939 2.90347H7.83605C7.66139 3.64012 7.38005 4.72818 6.99339 6.16634L5.52005 10.6891H10.2841Z" fill="currentColor"/>
<path d="M30.16 11.513C30.16 13.637 29.572 15.316 28.396 16.5485C27.3426 17.6456 26.0346 18.1936 24.4733 18.1936C22.788 18.1936 21.5773 17.6027 20.84 16.4209H20.7866V23H17.944V9.53337C17.944 8.19803 17.908 6.82755 17.8386 5.42192H20.3386L20.4973 7.40151H20.5506C21.4986 5.90999 22.9373 5.16553 24.868 5.16553C26.3773 5.16553 27.6373 5.7473 28.6453 6.91214C29.656 8.07829 30.16 9.61146 30.16 11.513ZM27.264 11.6145C27.264 10.3989 26.984 9.39671 26.4213 8.608C25.8066 7.78545 24.9813 7.37418 23.9466 7.37418C23.2453 7.37418 22.608 7.60324 22.0386 8.05486C21.468 8.51039 21.0946 9.10518 20.92 9.84183C20.832 10.1854 20.788 10.4665 20.788 10.6878V12.7702C20.788 13.6787 21.0733 14.4452 21.644 15.0713C22.2146 15.6973 22.956 16.0096 23.868 16.0096C24.9386 16.0096 25.772 15.6062 26.368 14.8019C26.9653 13.9962 27.264 12.9342 27.264 11.6145Z" fill="currentColor"/>
<path d="M44.8762 11.513C44.8762 13.637 44.2882 15.316 43.1108 16.5485C42.0588 17.6456 40.7508 18.1936 39.1895 18.1936C37.5042 18.1936 36.2935 17.6027 35.5575 16.4209H35.5042V23H32.6615V9.53337C32.6615 8.19803 32.6255 6.82755 32.5562 5.42192H35.0562L35.2148 7.40151H35.2681C36.2148 5.90999 37.6535 5.16553 39.5855 5.16553C41.0935 5.16553 42.3535 5.7473 43.3642 6.91214C44.3708 8.07829 44.8762 9.61146 44.8762 11.513ZM41.9802 11.6145C41.9802 10.3989 41.6988 9.39671 41.1362 8.608C40.5215 7.78545 39.6988 7.37418 38.6628 7.37418C37.9602 7.37418 37.3242 7.60324 36.7535 8.05486C36.1828 8.51039 35.8108 9.10518 35.6361 9.84183C35.5495 10.1854 35.5042 10.4665 35.5042 10.6878V12.7702C35.5042 13.6787 35.7895 14.4452 36.3575 15.0713C36.9282 15.696 37.6695 16.0096 38.5842 16.0096C39.6548 16.0096 40.4882 15.6062 41.0842 14.8019C41.6815 13.9962 41.9802 12.9342 41.9802 11.6145Z" fill="currentColor"/>
<path d="M61.3293 13.0539C61.3293 14.5272 60.8053 15.7259 59.7533 16.6513C58.5973 17.6625 56.988 18.1675 54.92 18.1675C53.0106 18.1675 51.48 17.8083 50.3213 17.0886L50.98 14.7758C52.228 15.5124 53.5973 15.8821 55.0893 15.8821C56.16 15.8821 56.9933 15.6452 57.592 15.174C58.188 14.7029 58.4853 14.0704 58.4853 13.2817C58.4853 12.5789 58.24 11.9867 57.748 11.5064C57.2586 11.0262 56.4413 10.5797 55.3 10.1672C52.1933 9.03616 50.6413 7.37935 50.6413 5.20063C50.6413 3.77679 51.1853 2.60934 52.2746 1.70089C53.36 0.791139 54.808 0.336914 56.6186 0.336914C58.2333 0.336914 59.5746 0.611531 60.6453 1.15946L59.9346 3.42148C58.9346 2.89046 57.804 2.62496 56.5386 2.62496C55.5386 2.62496 54.7573 2.86574 54.1973 3.34469C53.724 3.77288 53.4866 4.29479 53.4866 4.913C53.4866 5.59759 53.7573 6.16374 54.3013 6.60886C54.7746 7.02013 55.6346 7.46525 56.8826 7.9455C58.4093 8.5455 59.5306 9.24701 60.252 10.0513C60.9706 10.8531 61.3293 11.8565 61.3293 13.0539Z" fill="currentColor"/>
<path d="M70.728 7.50423H67.5947V13.5679C67.5947 15.1102 68.1467 15.8807 69.2534 15.8807C69.7614 15.8807 70.1827 15.8378 70.516 15.7519L70.5947 17.859C70.0347 18.0633 69.2974 18.1662 68.384 18.1662C67.2614 18.1662 66.384 17.8317 65.7507 17.164C65.12 16.495 64.8027 15.3731 64.8027 13.797V7.50163H62.936V5.41923H64.8027V3.13249L67.5947 2.30994V5.41923H70.728V7.50423Z" fill="currentColor"/>
<path d="M84.8655 11.5636C84.8655 13.4834 84.3028 15.0595 83.1802 16.292C82.0028 17.561 80.4402 18.1935 78.4922 18.1935C76.6148 18.1935 75.1202 17.5857 74.0055 16.3701C72.8908 15.1545 72.3335 13.62 72.3335 11.7706C72.3335 9.83524 72.9068 8.25001 74.0575 7.01749C75.2055 5.78366 76.7548 5.16675 78.7028 5.16675C80.5802 5.16675 82.0908 5.77455 83.2308 6.99146C84.3215 8.17192 84.8655 9.69598 84.8655 11.5636ZM81.9162 11.6534C81.9162 10.5016 81.6642 9.51377 81.1535 8.68992C80.5575 7.69297 79.7055 7.19579 78.6015 7.19579C77.4588 7.19579 76.5908 7.69427 75.9948 8.68992C75.4842 9.51507 75.2322 10.5185 75.2322 11.7055C75.2322 12.8573 75.4842 13.8452 75.9948 14.6677C76.6095 15.6647 77.4682 16.1618 78.5762 16.1618C79.6615 16.1618 80.5135 15.6543 81.1282 14.6417C81.6522 13.8022 81.9162 12.804 81.9162 11.6534Z" fill="currentColor"/>
<path d="M94.1054 7.86224C93.824 7.81148 93.524 7.78545 93.2094 7.78545C92.2094 7.78545 91.436 8.15378 90.892 8.89173C90.4187 9.54248 90.1814 10.365 90.1814 11.3581V17.9111H87.34L87.3667 9.35507C87.3667 7.9156 87.3307 6.60499 87.26 5.42322H89.736L89.84 7.81279H89.9187C90.2187 6.99154 90.692 6.33037 91.34 5.8345C91.9734 5.38808 92.6574 5.16553 93.3947 5.16553C93.6574 5.16553 93.8947 5.18375 94.1054 5.21629V7.86224Z" fill="currentColor"/>
<path d="M106.819 11.0756C106.819 11.5728 106.785 11.9919 106.715 12.3342H98.1867C98.22 13.568 98.632 14.5116 99.424 15.1624C100.143 15.7441 101.072 16.0357 102.213 16.0357C103.476 16.0357 104.628 15.8391 105.664 15.4448L106.109 17.371C104.899 17.8864 103.469 18.1428 101.82 18.1428C99.836 18.1428 98.2787 17.5727 97.1453 16.4339C96.0147 15.2951 95.448 13.7658 95.448 11.8474C95.448 9.96416 95.9747 8.39585 97.0293 7.1451C98.1333 5.80976 99.6253 5.14209 101.503 5.14209C103.347 5.14209 104.743 5.80976 105.691 7.1451C106.441 8.20583 106.819 9.51774 106.819 11.0756ZM104.108 10.3559C104.127 9.53336 103.941 8.82274 103.556 8.22275C103.064 7.45095 102.308 7.06571 101.291 7.06571C100.361 7.06571 99.6053 7.44185 99.028 8.19672C98.5547 8.79671 98.2733 9.51644 98.1867 10.3546H104.108V10.3559Z" fill="currentColor"/>
</svg>
