<svg width="20" height="18" viewBox="0 0 20 18" fill="none" xmlns="http://www.w3.org/2000/svg">
<path d="M2.20984 15.9001C2.51118 15.4043 3.01341 15.1069 3.51565 15.1069H5.52459L4.31922 17.1892L4.21878 17.2883C3.91744 17.8833 3.11386 17.9825 2.51118 17.685C1.90849 17.3875 1.7076 16.5942 2.10939 15.9993L2.20984 15.9001ZM9.74337 11.438C10.4465 11.438 11.0492 11.8346 11.3505 12.4296L12.2545 13.9169H1.20536C0.602683 13.9169 0 13.322 0 12.6279C0 12.0329 0.502235 11.438 1.20536 11.438H4.92191L8.63845 5.09181L6.8304 1.91872C6.72995 1.91872 6.72995 1.81956 6.72995 1.81956C6.32817 1.12545 6.62951 0.431341 7.23219 0.133864C7.83487 -0.163612 8.63845 0.0347056 8.93979 0.728818L10.0447 2.61284L11.1496 0.728818L11.2501 0.629659C11.5514 0.0347056 12.355 -0.0644531 12.9577 0.233023C13.5604 0.5305 13.7612 1.32377 13.3595 1.91872L7.73442 11.438H9.74337ZM18.884 11.438C19.4867 11.438 20.0894 12.0329 19.989 12.727C19.989 13.322 19.4867 13.9169 18.7836 13.9169H16.6742L17.98 16.0984C18.0805 16.0984 18.0805 16.1976 18.0805 16.1976C18.3818 16.7926 18.0805 17.5858 17.4778 17.8833C16.8751 18.1808 16.0715 17.8833 15.7702 17.2883L11.6519 10.2481C11.1496 9.35564 11.1496 8.16573 11.6519 7.2733L12.2545 6.28171L15.268 11.438H18.884Z" fill="white"/>
</svg>
