<svg width="28" height="34" viewBox="0 0 28 34" fill="none" xmlns="http://www.w3.org/2000/svg">
<path d="M23.1148 17.6575C23.0761 13.4627 26.6335 11.422 26.7961 11.327C24.7815 8.45977 21.6588 8.06802 20.5615 8.03678C17.9388 7.76737 15.3948 9.56865 14.0588 9.56865C12.6961 9.56865 10.6388 8.06281 8.42146 8.10706C5.56813 8.15001 2.89879 9.76257 1.43479 12.2667C-1.58654 17.3725 0.666794 24.8756 3.56146 29.0027C5.00946 31.0239 6.70146 33.2807 8.91613 33.2013C11.0828 33.1141 11.8921 31.853 14.5068 31.853C17.0975 31.853 17.8575 33.2013 20.1161 33.1506C22.4415 33.1141 23.9055 31.1202 25.3028 29.0808C26.9761 26.7641 27.6481 24.4826 27.6748 24.3654C27.6201 24.3472 23.1588 22.6852 23.1148 17.6575Z" fill="currentColor"/>
<path d="M18.8481 5.32185C20.0135 3.8993 20.8108 1.96397 20.5895 0C18.9028 0.0728842 16.7935 1.13882 15.5788 2.53012C14.5041 3.75614 13.5441 5.76566 13.7921 7.65544C15.6868 7.7934 17.6321 6.72226 18.8481 5.32185Z" fill="currentColor"/>
</svg>
