<svg width="24" height="25" viewBox="0 0 24 25" fill="none" xmlns="http://www.w3.org/2000/svg">
<path d="M12 2.5C6.47715 2.5 2 6.97715 2 12.5C2 18.0228 6.47715 22.5 12 22.5C17.5228 22.5 22 18.0228 22 12.5C22 9.84784 20.9464 7.3043 19.0711 5.42893C17.1957 3.55357 14.6522 2.5 12 2.5Z" fill="url(#paint0_linear_153_355)"/>
<path d="M10.7301 15.8501L16.3501 10.2301C16.5342 10.037 16.5342 9.73326 16.3501 9.54012L15.8201 9.01012C15.6257 8.81954 15.3145 8.81954 15.1201 9.01012L10.3801 13.7501L8.8801 12.2601C8.78936 12.1634 8.66268 12.1086 8.5301 12.1086C8.39751 12.1086 8.27083 12.1634 8.1801 12.2601L7.6501 12.7901C7.55544 12.884 7.5022 13.0118 7.5022 13.1451C7.5022 13.2784 7.55544 13.4062 7.6501 13.5001L10.0301 15.8501C10.1208 15.9468 10.2475 16.0016 10.3801 16.0016C10.5127 16.0016 10.6394 15.9468 10.7301 15.8501Z" fill="white"/>
<defs>
<linearGradient id="paint0_linear_153_355" x1="2" y1="2.5" x2="22" y2="22.5" gradientUnits="userSpaceOnUse">
<stop stop-color="#EF7F3E"/>
<stop offset="1" stop-color="#EC367D"/>
</linearGradient>
</defs>
</svg>
