<svg width="19" height="18" viewBox="0 0 19 18" fill="none" xmlns="http://www.w3.org/2000/svg">
<path d="M18.9675 0.949039L12.9784 17.6706C12.9069 17.8682 12.7194 17.9999 12.5092 18H12.3495C12.1535 18 11.9749 17.8874 11.8903 17.7105L9.53462 12.719C9.18774 11.9831 9.322 11.1103 9.874 10.5128L12.8686 7.23833C13.0524 7.04551 13.0524 6.74232 12.8686 6.5495L12.4893 6.17015C12.2965 5.98633 11.9933 5.98633 11.8005 6.17015L8.52644 9.16505C7.92893 9.71711 7.05625 9.85139 6.32044 9.50447L1.32949 7.14848C1.13702 7.07601 1.00706 6.89483 1.00009 6.68926V6.52954C0.982409 6.30492 1.11738 6.09631 1.32949 6.0204L18.0492 0.0306031C18.2289 -0.0354106 18.4306 0.00725579 18.5682 0.140416L18.8278 0.399974C18.9838 0.536262 19.0394 0.754747 18.9675 0.949039Z" fill="currentColor"/>
</svg>
