<svg width="104" height="10" viewBox="0 0 104 10" fill="none" xmlns="http://www.w3.org/2000/svg">
<path d="M7.34405 4.93526C7.34405 6.46713 6.87339 7.62026 5.93339 8.39465C5.06272 9.10918 3.82538 9.46709 2.22271 9.46709C1.42805 9.46709 0.748045 9.43325 0.178711 9.36557V0.995608C0.921378 0.878472 1.72138 0.818604 2.58538 0.818604C4.11205 0.818604 5.26272 1.14268 6.03872 1.79083C6.90805 2.52357 7.34405 3.57128 7.34405 4.93526ZM5.87072 4.973C5.87072 3.97995 5.60139 3.21857 5.06272 2.68756C4.52405 2.15785 3.73738 1.89234 2.70138 1.89234C2.26138 1.89234 1.88671 1.92098 1.57605 1.98085V8.34389C1.74805 8.36993 2.06271 8.38164 2.52005 8.38164C3.58938 8.38164 4.41472 8.0914 4.99605 7.51093C5.57739 6.93046 5.87072 6.08449 5.87072 4.973Z" fill="currentColor"/>
<path d="M15.156 6.27318C15.156 7.21676 14.88 7.98986 14.328 8.59636C13.7493 9.21978 12.9827 9.53084 12.0253 9.53084C11.1027 9.53084 10.368 9.23279 9.82 8.6341C9.27334 8.03671 9 7.28314 9 6.37469C9 5.4246 9.28133 4.645 9.84667 4.0398C10.412 3.4346 11.172 3.13135 12.1293 3.13135C13.052 3.13135 13.7933 3.42939 14.3547 4.02678C14.888 4.60725 15.156 5.35692 15.156 6.27318ZM13.7067 6.31743C13.7067 5.75127 13.5813 5.26581 13.332 4.86104C13.0387 4.37168 12.6213 4.127 12.0787 4.127C11.5173 4.127 11.0907 4.37168 10.7973 4.86104C10.5467 5.26581 10.4227 5.75908 10.4227 6.34216C10.4227 6.90831 10.548 7.39377 10.7973 7.79854C11.1 8.2879 11.5213 8.53258 12.0653 8.53258C12.5987 8.53258 13.0173 8.284 13.3187 7.78552C13.5773 7.37295 13.7067 6.88358 13.7067 6.31743Z" fill="currentColor"/>
<path d="M25.6306 3.25635L23.6639 9.39163H22.3839L21.5693 6.72746C21.3626 6.06239 21.1946 5.40122 21.0639 4.74527H21.0386C20.9173 5.41945 20.7493 6.07931 20.5333 6.72746L19.6679 9.39163H18.3733L16.5239 3.25635H17.9599L18.6706 6.17302C18.8426 6.86281 18.9839 7.52007 19.0973 8.14219H19.1226C19.2266 7.6294 19.3986 6.97604 19.6413 6.18603L20.5333 3.25765H21.6719L22.5266 6.12356C22.7333 6.82247 22.9013 7.49534 23.0306 8.14349H23.0693C23.1639 7.51226 23.3066 6.83939 23.4959 6.12356L24.2586 3.25765H25.6306V3.25635Z" fill="currentColor"/>
<path d="M32.8748 9.39158H31.4775V5.87752C31.4775 4.79467 31.0561 4.25324 30.2108 4.25324C29.7961 4.25324 29.4615 4.40161 29.2015 4.69966C28.9441 4.9977 28.8135 5.34911 28.8135 5.75127V9.39028H27.4161V5.00942C27.4161 4.47059 27.3988 3.88622 27.3655 3.25369H28.5935L28.6588 4.2129H28.6975C28.8601 3.91485 29.1028 3.66887 29.4215 3.47234C29.8001 3.24328 30.2241 3.12744 30.6881 3.12744C31.2748 3.12744 31.7628 3.31225 32.1508 3.68318C32.6335 4.13741 32.8748 4.81549 32.8748 5.71613V9.39158Z" fill="currentColor"/>
<path d="M36.728 9.3916H35.332V0.441162H36.728V9.3916Z" fill="currentColor"/>
<path d="M44.9548 6.27318C44.9548 7.21676 44.6788 7.98986 44.1268 8.59636C43.5482 9.21978 42.7802 9.53084 41.8242 9.53084C40.9002 9.53084 40.1655 9.23279 39.6188 8.6341C39.0722 8.03671 38.7988 7.28314 38.7988 6.37469C38.7988 5.4246 39.0802 4.645 39.6455 4.0398C40.2108 3.4346 40.9708 3.13135 41.9268 3.13135C42.8508 3.13135 43.5908 3.42939 44.1535 4.02678C44.6868 4.60725 44.9548 5.35692 44.9548 6.27318ZM43.5042 6.31743C43.5042 5.75127 43.3788 5.26581 43.1295 4.86104C42.8375 4.37168 42.4188 4.127 41.8775 4.127C41.3148 4.127 40.8882 4.37168 40.5962 4.86104C40.3455 5.26581 40.2215 5.75908 40.2215 6.34216C40.2215 6.90831 40.3468 7.39377 40.5962 7.79854C40.8988 8.2879 41.3202 8.53258 41.8642 8.53258C42.3975 8.53258 42.8148 8.284 43.1162 7.78552C43.3762 7.37295 43.5042 6.88358 43.5042 6.31743Z" fill="currentColor"/>
<path d="M51.7174 9.39158H50.4627L50.3587 8.68486H50.32C49.8907 9.24841 49.2787 9.53084 48.484 9.53084C47.8907 9.53084 47.4107 9.34472 47.0494 8.9751C46.7214 8.63931 46.5574 8.22152 46.5574 7.72565C46.5574 6.97599 46.8774 6.40463 47.5214 6.00897C48.164 5.61331 49.068 5.41939 50.232 5.4285V5.31397C50.232 4.50573 49.7974 4.10227 48.9267 4.10227C48.3067 4.10227 47.76 4.25454 47.288 4.55649L47.004 3.66106C47.588 3.30835 48.3094 3.13135 49.16 3.13135C50.8027 3.13135 51.6267 3.97732 51.6267 5.66928V7.92869C51.6267 8.54169 51.6574 9.02976 51.7174 9.39158ZM50.2667 7.28314V6.33695C48.7254 6.31092 47.9547 6.7235 47.9547 7.57338C47.9547 7.89355 48.0427 8.13302 48.2227 8.29311C48.4027 8.45319 48.632 8.53258 48.9054 8.53258C49.212 8.53258 49.4987 8.43757 49.76 8.24886C50.0227 8.05884 50.184 7.81806 50.244 7.52262C50.2587 7.45624 50.2667 7.37555 50.2667 7.28314Z" fill="currentColor"/>
<path d="M59.6575 9.3916H58.4175L58.3521 8.40636H58.3135C57.9175 9.15603 57.2428 9.53086 56.2948 9.53086C55.5375 9.53086 54.9068 9.24062 54.4068 8.66015C53.9068 8.07968 53.6575 7.32611 53.6575 6.40074C53.6575 5.4077 53.9281 4.60337 54.4721 3.98906C54.9988 3.4164 55.6441 3.13007 56.4121 3.13007C57.2561 3.13007 57.8468 3.40729 58.1828 3.96303H58.2095V0.441162H59.6081V7.73869C59.6081 8.33608 59.6241 8.88661 59.6575 9.3916ZM58.2095 6.80421V5.78123C58.2095 5.60423 58.1961 5.46106 58.1708 5.35173C58.0921 5.02375 57.9228 4.74784 57.6655 4.52528C57.4055 4.30272 57.0921 4.19079 56.7308 4.19079C56.2095 4.19079 55.8015 4.39252 55.5015 4.79729C55.2041 5.20206 55.0535 5.71876 55.0535 6.34999C55.0535 6.95649 55.1961 7.44845 55.4828 7.82719C55.7855 8.23066 56.1935 8.43239 56.7041 8.43239C57.1628 8.43239 57.5295 8.2645 57.8081 7.92741C58.0775 7.61635 58.2095 7.24151 58.2095 6.80421Z" fill="currentColor"/>
<path d="M71.6081 6.27318C71.6081 7.21676 71.3321 7.98986 70.7801 8.59636C70.2015 9.21978 69.4362 9.53084 68.4775 9.53084C67.5562 9.53084 66.8215 9.23279 66.2722 8.6341C65.7255 8.03671 65.4521 7.28314 65.4521 6.37469C65.4521 5.4246 65.7335 4.645 66.2988 4.0398C66.8641 3.4346 67.6241 3.13135 68.5828 3.13135C69.5041 3.13135 70.2468 3.42939 70.8068 4.02678C71.3401 4.60725 71.6081 5.35692 71.6081 6.27318ZM70.1602 6.31743C70.1602 5.75127 70.0348 5.26581 69.7855 4.86104C69.4908 4.37168 69.0748 4.127 68.5308 4.127C67.9708 4.127 67.5441 4.37168 67.2495 4.86104C66.9988 5.26581 66.8748 5.75908 66.8748 6.34216C66.8748 6.90831 67.0001 7.39377 67.2495 7.79854C67.5521 8.2879 67.9735 8.53258 68.5175 8.53258C69.0508 8.53258 69.4708 8.284 69.7722 7.78552C70.0295 7.37295 70.1602 6.88358 70.1602 6.31743Z" fill="currentColor"/>
<path d="M79.1213 9.39158H77.7253V5.87752C77.7253 4.79467 77.3039 4.25324 76.4573 4.25324C76.0426 4.25324 75.7079 4.40161 75.4493 4.69966C75.1906 4.9977 75.0613 5.34911 75.0613 5.75127V9.39028H73.6626V5.00942C73.6626 4.47059 73.6466 3.88622 73.6133 3.25369H74.8399L74.9053 4.2129H74.9439C75.1079 3.91485 75.3506 3.66887 75.6679 3.47234C76.0479 3.24328 76.4706 3.12744 76.9359 3.12744C77.5213 3.12744 78.0093 3.31225 78.3973 3.68318C78.8813 4.13741 79.1213 4.81549 79.1213 5.71613V9.39158Z" fill="currentColor"/>
<path d="M88.5255 4.27804H86.9868V7.25848C86.9868 8.01595 87.2602 8.39469 87.8015 8.39469C88.0522 8.39469 88.2602 8.37387 88.4242 8.33092L88.4602 9.36561C88.1842 9.46713 87.8215 9.51789 87.3748 9.51789C86.8228 9.51789 86.3935 9.3539 86.0828 9.02592C85.7708 8.69794 85.6162 8.1461 85.6162 7.37171V4.27804H84.6975V3.25636H85.6162V2.13186L86.9855 1.72839V3.25506H88.5242V4.27804H88.5255Z" fill="currentColor"/>
<path d="M95.9228 9.3916H94.5241V5.90357C94.5241 4.8038 94.1028 4.25326 93.2588 4.25326C92.6108 4.25326 92.1681 4.57213 91.9255 5.20987C91.8841 5.34392 91.8601 5.50791 91.8601 5.70054V9.3903H90.4641V0.441162H91.8601V4.13873H91.8868C92.3268 3.46586 92.9575 3.13007 93.7748 3.13007C94.3535 3.13007 94.8321 3.31488 95.2121 3.68581C95.6855 4.14784 95.9228 4.83504 95.9228 5.74349V9.3916Z" fill="currentColor"/>
<path d="M103.553 6.03369C103.553 6.27838 103.535 6.48401 103.501 6.65191H99.3107C99.3293 7.25841 99.5293 7.72044 99.9173 8.04061C100.272 8.32694 100.729 8.47011 101.289 8.47011C101.909 8.47011 102.475 8.3738 102.984 8.17987L103.203 9.12737C102.607 9.37986 101.905 9.5061 101.093 9.5061C100.12 9.5061 99.3533 9.22628 98.7987 8.66663C98.2413 8.10699 97.9653 7.35602 97.9653 6.41373C97.9653 5.48836 98.2227 4.71787 98.7413 4.10356C99.2827 3.44761 100.015 3.11963 100.939 3.11963C101.843 3.11963 102.529 3.44761 102.993 4.10356C103.368 4.62417 103.553 5.26841 103.553 6.03369ZM102.22 5.68099C102.231 5.27622 102.139 4.92742 101.949 4.63328C101.707 4.25454 101.337 4.06452 100.837 4.06452C100.381 4.06452 100.009 4.24933 99.7253 4.62026C99.4933 4.9157 99.356 5.26841 99.3107 5.68099H102.22Z" fill="currentColor"/>
</svg>
