<svg width="156" height="26" fill="none" xmlns="http://www.w3.org/2000/svg"><g clip-path="url(#a)"><path d="M14.658 15.746a8.184 8.184 0 0 0 4.49-7.384C19.148 3.402 15.345 0 10.17 0H0v25.336h5.24a1.272 1.272 0 0 0 1.272-1.263V18.1c0-.034.008-.069.025-.1l2.038-3.69a.073.073 0 0 1 .096-.033.076.076 0 0 1 .033.032l2.036 3.676a.206.206 0 0 1 .025.102v5.985a1.272 1.272 0 0 0 1.28 1.271h8.015l-5.402-9.598ZM10.752 8.24l1.903 1.893a.033.033 0 0 1 0 .043l-2.051 2.05a.033.033 0 0 1-.043 0l-1.9-1.902a.034.034 0 0 0-.047 0l-1.903 1.902a.03.03 0 0 1-.02.008.03.03 0 0 1-.021-.008l-2.048-2.045a.034.034 0 0 1 0-.046l1.903-1.893a.033.033 0 0 0 0-.043L4.622 6.283a.033.033 0 0 1 0-.045l2.044-2.044a.033.033 0 0 1 .045 0l1.903 1.903a.033.033 0 0 0 .043 0l1.907-1.903a.034.034 0 0 1 .047 0l2.044 2.044a.03.03 0 0 1 0 .041l-1.903 1.907a.034.034 0 0 0 0 .048v.007Z" fill="url(#b)"/><path d="M37.14 16.448c0-4.337-2.324-8.186-6.797-9.14a10.64 10.64 0 0 0-2.226-.225c-5.483 0-9.23 3.916-9.23 9.535 0 4.595 2.821 8.112 6.858 9.07a9.774 9.774 0 0 0 2.268.262c4.85 0 8.112-2.397 8.949-6.152l.01-.046h-4.767c-.516 1.123-1.908 2.146-3.985 2.146a5.27 5.27 0 0 1-1.065-.109c-1.893-.4-3.115-1.87-3.26-3.808h13.25l-.004-1.533Zm-9.023-5.345c.371-.002.742.038 1.104.119 1.721.38 2.847 1.66 3.015 3.252h-8.24c.238-1.77 1.873-3.371 4.12-3.371Z" fill="url(#c)"/><path d="M50.09 11.683v-4.13h-4.703V2.69h-5.013v3.313c0 .955-.516 1.602-1.466 1.602h-1.704v4.077h2.891v7.633c0 3.958 2.351 6.237 6.27 6.237h3.646v-4.358h-2.306c-1.568 0-2.318-.817-2.318-2.145v-7.367h4.703ZM59.87 7.123c-5.827 0-9.713 4.13-9.713 9.438 0 5.309 3.92 9.439 9.678 9.439 5.794 0 9.712-4.13 9.712-9.439S65.63 7.123 59.87 7.123Zm-.035 14.11c-2.487 0-4.328-1.908-4.328-4.668 0-2.726 1.841-4.669 4.328-4.669 2.523 0 4.362 1.943 4.362 4.669 0 2.726-1.84 4.665-4.362 4.665v.003ZM82.018 7.572v10.087c0 1.909-1.227 3.442-3.066 3.442-1.807 0-2.898-1.296-2.898-3.17V7.571h-5.28v11.996c0 3.748 2.454 6.44 6.441 6.44 2.42 0 4.13-1.225 4.805-2.41h.272v1.976h5.01V7.572h-5.284ZM97.865 21.23c-2.555 0-4.224-2.044-4.224-4.669 0-2.581 1.602-4.668 4.192-4.668 1.874 0 3.236 1.125 3.713 2.658h5.35c-.516-4.396-4.089-7.428-9.098-7.428-5.794 0-9.507 4.13-9.507 9.438 0 5.309 3.748 9.439 9.542 9.439 4.94 0 8.451-2.963 9.029-7.227h-5.385c-.442 1.435-1.841 2.457-3.612 2.457ZM118.517 7.123c-2.42 0-4.022 1.192-4.738 2.419h-.27V0h-5.248v25.558h5.283V15.405c0-1.874 1.294-3.375 3.133-3.375 1.807 0 2.965 1.33 2.965 3.17v10.36h5.29V13.565c0-3.756-2.428-6.442-6.415-6.442ZM140.979 1.702h-6.883l-8.112 23.856h5.52l1.397-4.22h9.133l1.432 4.225h5.73l-8.217-23.861Zm-6.612 14.818 2.965-8.893h.307l2.925 8.893h-6.197ZM150.043 1.702v23.856h5.384V1.702h-5.384Z" fill="#fff"/></g><defs><linearGradient id="b" x1="0" y1="0" x2="24.366" y2="34.878" gradientUnits="userSpaceOnUse"><stop stop-color="#EF7F3E"/><stop offset="1" stop-color="#EC367D"/></linearGradient><linearGradient id="c" x1="0" y1="0" x2="24.366" y2="34.878" gradientUnits="userSpaceOnUse"><stop stop-color="#EF7F3E"/><stop offset="1" stop-color="#EC367D"/></linearGradient><clipPath id="a"><path fill="#fff" d="M0 0h155.427v26H0z"/></clipPath></defs></svg>